<?xml version="1.0" encoding="UTF-8" standalone="no"?>
<svg
   xmlns:dc="http://purl.org/dc/elements/1.1/"
   xmlns:cc="http://creativecommons.org/ns#"
   xmlns:rdf="http://www.w3.org/1999/02/22-rdf-syntax-ns#"
   xmlns:svg="http://www.w3.org/2000/svg"
   xmlns="http://www.w3.org/2000/svg"
   xmlns:sodipodi="http://sodipodi.sourceforge.net/DTD/sodipodi-0.dtd"
   xmlns:inkscape="http://www.inkscape.org/namespaces/inkscape"
   id="svg3455"
   version="1.1"
   viewBox="0 0 270.93333 270.93333"
   height="1024"
   width="1024"
   sodipodi:docname="tank.svg"
   inkscape:version="0.92.1 r15371">
  <sodipodi:namedview
     pagecolor="#ffffff"
     bordercolor="#666666"
     borderopacity="1"
     objecttolerance="10"
     gridtolerance="10"
     guidetolerance="10"
     inkscape:pageopacity="0"
     inkscape:pageshadow="2"
     inkscape:window-width="1366"
     inkscape:window-height="716"
     id="namedview3686"
     showgrid="false"
     inkscape:zoom="0.23046875"
     inkscape:cx="-223.45763"
     inkscape:cy="512"
     inkscape:window-x="-8"
     inkscape:window-y="-8"
     inkscape:window-maximized="1"
     inkscape:current-layer="svg3455" />
  <style
     type="text/css"
     id="style3662"><![CDATA[
		#tank { fill:#006600;stroke:#1b1918;stroke-width:6.62430382;fill-rule:evenodd;stroke-linecap:butt;stroke-linejoin:miter;stroke-dasharray:none }
		.grey { fill:#494848;stroke:#2c2a29;stroke-width:20.02939034;fill-rule:evenodd;stroke-linecap:butt;stroke-linejoin:miter;stroke-dasharray:none }
    ]]></style>
  <defs
     id="defs3449" />
  <metadata
     id="metadata3452">
    <rdf:RDF>
      <cc:Work
         rdf:about="">
        <dc:format>image/svg+xml</dc:format>
        <dc:type
           rdf:resource="http://purl.org/dc/dcmitype/StillImage" />
        <dc:title />
      </cc:Work>
    </rdf:RDF>
  </metadata>
  <g
     id="tank"
     inkscape:label="#g8687">
    <g
       transform="translate(0,-26.066725)"
       id="g3658"
       style="fill:#006600;fill-rule:evenodd;stroke:#1b1918;stroke-width:6.62430382;stroke-linecap:butt;stroke-linejoin:miter;stroke-dasharray:none">
      <path
         id="path6665"
         style="fill:#7d8ea5;fill-rule:evenodd;stroke:#2c2a29;stroke-width:5.29944277;stroke-linecap:butt;stroke-linejoin:miter;stroke-dasharray:none"
         d="m 9.0708989,251.0934 v 33.38392 q 0,10.76913 10.7171711,10.76913 h 232.81696 q 10.71717,0 10.71717,-10.76913 V 251.0934 q 0,-10.76913 -10.71717,-10.76913 H 19.78807 q -10.7171711,0 -10.7171711,10.76913 z"
         inkscape:connector-curvature="0" />
      <path
         class="grey"
         d="m 76.275391,810.56641 c -7.533161,0 -11.300782,3.78382 -11.300782,11.35351 v 183.34768 c 0,7.5697 3.767621,11.3535 11.300782,11.3535 h 2.498047 c 7.53316,0 11.300781,-3.7838 11.300781,-11.3535 V 821.91992 c 0,-7.56969 -3.767621,-11.35351 -11.300781,-11.35351 z m 84.855469,0 v 206.05469 h 25.09961 V 810.56641 Z m 96.83594,0 v 206.05469 h 25.09961 V 810.56641 Z m 98.04492,0 v 206.05469 h 25.09766 V 810.56641 Z m 96.15625,0 v 206.05469 h 25.09765 V 810.56641 Z m 96.83594,0 v 206.05469 h 25.09765 V 810.56641 Z m 99.63281,0 v 206.05469 h 25.09766 V 810.56641 Z m 96.1543,0 v 206.05469 h 25.0996 V 810.56641 Z m 96.83789,0 v 206.05469 h 25.09765 V 810.56641 Z m 108.83789,0 c -6.944,0 -10.41602,3.48913 -10.41602,10.46679 v 185.1211 c 0,6.9777 3.47202,10.4668 10.41602,10.4668 h 4.26562 c 6.94393,0 10.41602,-3.4891 10.41602,-10.4668 V 821.0332 c 0,-6.97766 -3.47209,-10.46679 -10.41602,-10.46679 z"
         transform="matrix(0.26458333,0,0,0.26458333,0,26.066725)"
         id="path6667"
         inkscape:connector-curvature="0"
         style="fill:#494848;fill-rule:evenodd;stroke:#2c2a29;stroke-width:20.02939034;stroke-linecap:butt;stroke-linejoin:miter;stroke-dasharray:none" />
      <path
         id="path6687"
         style="fill:#7d8ea5;fill-rule:evenodd;stroke:#2c2a29;stroke-width:5.29944277;stroke-linecap:butt;stroke-linejoin:miter;stroke-dasharray:none"
         d="m 9.0708989,40.402277 v 33.383917 q 0,10.769131 10.7171711,10.769131 h 232.81696 q 10.71717,0 10.71717,-10.769131 V 40.402277 q 0,-10.769131 -10.71717,-10.769131 H 19.78807 q -10.7171711,0 -10.7171711,10.769131 z"
         inkscape:connector-curvature="0" />
      <path
         class="grey"
         d="m 76.275391,14.253906 c -7.533161,0 -11.300782,3.783833 -11.300782,11.353516 V 208.95312 c 0,7.56969 3.767621,11.35547 11.300782,11.35547 h 2.498047 c 7.53316,0 11.300781,-3.78578 11.300781,-11.35547 V 25.607422 c 0,-7.569683 -3.767621,-11.353516 -11.300781,-11.353516 z m 84.855469,0 V 220.30859 h 25.09961 V 14.253906 Z m 96.83594,0 V 220.30859 h 25.09961 V 14.253906 Z m 98.04492,0 V 220.30859 h 25.09766 V 14.253906 Z m 96.15625,0 V 220.30859 h 25.09765 V 14.253906 Z m 96.83594,0 V 220.30859 h 25.09765 V 14.253906 Z m 99.63281,0 V 220.30859 h 25.09766 V 14.253906 Z m 96.1543,0 V 220.30859 h 25.0996 V 14.253906 Z m 96.83789,0 V 220.30859 h 25.09765 V 14.253906 Z m 108.83789,0 c -6.944,0 -10.41602,3.487184 -10.41602,10.464844 V 209.8418 c 0,6.97766 3.47202,10.46679 10.41602,10.46679 h 4.26562 c 6.94393,0 10.41602,-3.48913 10.41602,-10.46679 V 24.71875 c 0,-6.97766 -3.47209,-10.464844 -10.41602,-10.464844 z"
         transform="matrix(0.26458333,0,0,0.26458333,0,26.066725)"
         id="path6689"
         inkscape:connector-curvature="0"
         style="fill:#494848;fill-rule:evenodd;stroke:#2c2a29;stroke-width:20.02939034;stroke-linecap:butt;stroke-linejoin:miter;stroke-dasharray:none" />
    </g>
    <path
       d="M 4.4034153,31.95445 H 268.73515 V 94.791255 H 4.4034153 Z"
       class="green"
       id="path6709"
       inkscape:connector-curvature="0"
       style="fill:#006600;fill-rule:evenodd;stroke:#1b1918;stroke-width:6.62430382;stroke-linecap:butt;stroke-linejoin:miter;stroke-dasharray:none" />
    <path
       d="m 4.403392,178.88165 v 62.83697 H 268.73515 v -62.83697 z"
       class="green"
       id="path6711"
       inkscape:connector-curvature="0"
       style="fill:#006600;fill-rule:evenodd;stroke:#1b1918;stroke-width:6.62430382;stroke-linecap:butt;stroke-linejoin:miter;stroke-dasharray:none" />
    <path
       d="M 43.209063,53.507564 H 259.96437 V 218.91957 H 43.209063 Z"
       class="green"
       id="path6713"
       inkscape:connector-curvature="0"
       style="fill:#006600;fill-rule:evenodd;stroke:#1b1918;stroke-width:6.62430382;stroke-linecap:butt;stroke-linejoin:miter;stroke-dasharray:none" />
    <path
       id="path6715"
       d="m 224.23954,84.483214 c -1.92963,0 -2.8944,0.969349 -2.8944,2.90835 v 1.618507 c 0,1.938978 0.96477,2.908866 2.8944,2.908866 h 26.54153 c 1.92965,0 2.8944,-0.969888 2.8944,-2.908866 v -1.618507 c 0,-1.939001 -0.96475,-2.90835 -2.8944,-2.90835 z m 0,11.561569 c -1.92963,0 -2.8944,0.969362 -2.8944,2.908348 v 1.618509 c 0,1.939 0.96477,2.90835 2.8944,2.90835 h 26.54153 c 1.92965,0 2.8944,-0.96935 2.8944,-2.90835 v -1.618509 c 0,-1.938986 -0.96475,-2.908348 -2.8944,-2.908348 z m 0,11.169347 c -1.92963,0 -2.8944,0.96937 -2.8944,2.90835 v 1.6185 c 0,1.939 0.96477,2.90887 2.8944,2.90887 h 26.54153 c 1.92965,0 2.8944,-0.96987 2.8944,-2.90887 v -1.6185 c 0,-1.93898 -0.96475,-2.90835 -2.8944,-2.90835 z m 0,9.9937 c -1.92963,0 -2.8944,0.96988 -2.8944,2.90887 v 1.6185 c 0,1.939 0.96477,2.90835 2.8944,2.90835 h 26.54153 c 1.92965,0 2.8944,-0.96935 2.8944,-2.90835 v -1.6185 c 0,-1.93899 -0.96475,-2.90887 -2.8944,-2.90887 z m 0,10.97349 c -1.92963,0 -2.8944,0.96987 -2.8944,2.90887 v 1.6185 c 0,1.939 0.96477,2.90835 2.8944,2.90835 h 26.54153 c 1.92965,0 2.8944,-0.96935 2.8944,-2.90835 v -1.6185 c 0,-1.939 -0.96475,-2.90887 -2.8944,-2.90887 z m 0,10.53269 c -1.92963,0 -2.8944,0.96988 -2.8944,2.90887 v 1.61851 c 0,1.93898 0.96477,2.90834 2.8944,2.90834 h 26.54153 c 1.92965,0 2.8944,-0.96936 2.8944,-2.90834 v -1.61851 c 0,-1.93899 -0.96475,-2.90887 -2.8944,-2.90887 z m 0,11.56157 c -1.92963,0 -2.8944,0.96934 -2.8944,2.90835 v 1.61902 c 0,1.93901 0.96477,2.90835 2.8944,2.90835 h 26.54153 c 1.92965,0 2.8944,-0.96934 2.8944,-2.90835 v -1.61902 c 0,-1.93901 -0.96475,-2.90835 -2.8944,-2.90835 z m 0,11.16934 c -1.92963,0 -2.8944,0.96987 -2.8944,2.90887 v 1.61851 c 0,1.939 0.96477,2.90834 2.8944,2.90834 h 26.54153 c 1.92965,0 2.8944,-0.96934 2.8944,-2.90834 v -1.61851 c 0,-1.939 -0.96475,-2.90887 -2.8944,-2.90887 z m 0,9.99422 c -1.92963,0 -2.8944,0.96936 -2.8944,2.90835 v 1.61851 c 0,1.939 0.96477,2.90835 2.8944,2.90835 h 26.54153 c 1.92965,0 2.8944,-0.96935 2.8944,-2.90835 v -1.61851 c 0,-1.93899 -0.96475,-2.90835 -2.8944,-2.90835 z m 0,10.9735 c -1.92963,0 -2.8944,0.96935 -2.8944,2.90835 v 1.6185 c 0,1.93899 0.96477,2.90835 2.8944,2.90835 h 26.54153 c 1.92965,0 2.8944,-0.96936 2.8944,-2.90835 v -1.6185 c 0,-1.939 -0.96475,-2.90835 -2.8944,-2.90835 z"
       style="fill:#1b1918;fill-rule:evenodd;stroke:#1b1918;stroke-width:0.23369035;stroke-linecap:butt;stroke-linejoin:miter;stroke-dasharray:none"
       inkscape:connector-curvature="0" />
    <path
       d="m 62.442439,157.2907 v 34.11801 h 3.507216 V 157.2907 Z"
       style="fill:#006600;fill-rule:evenodd;stroke:#1b1918;stroke-width:0.23369035;stroke-linecap:butt;stroke-linejoin:miter;stroke-dasharray:none"
       id="path6735"
       inkscape:connector-curvature="0" />
    <path
       d="m 62.442439,80.866435 v 34.118015 h 3.507216 V 80.866435 Z"
       style="fill:#006600;fill-rule:evenodd;stroke:#1b1918;stroke-width:0.23369035;stroke-linecap:butt;stroke-linejoin:miter;stroke-dasharray:none"
       id="path6737"
       inkscape:connector-curvature="0" />
    <path
       d="M 78.333466,73.617285 46.382396,56.921777 V 215.30806 l 31.95107,-16.6955 z"
       style="fill:#00cc00;fill-opacity:0;fill-rule:evenodd;stroke:#1b1918;stroke-width:0.23369035;stroke-linecap:butt;stroke-linejoin:miter;stroke-dasharray:none"
       id="path6739"
       inkscape:connector-curvature="0" />
    <path
       inkscape:label="#path6741"
       d="M 46.807431,57.156338 H 256.85792 l -0.013,16.417844 H 78.155778 Z"
       style="fill:#333301;fill-rule:evenodd;stroke:#1b1918;stroke-width:0.23369035;stroke-linecap:butt;stroke-linejoin:miter;stroke-dasharray:none;opacity:0.778"
       id="light"
       inkscape:connector-curvature="0" />
    <path
       inkscape:label="#path6743"
       d="M 46.807431,214.95828 H 256.85792 l -0.013,-16.41787 H 78.155778 Z"
       style="fill:#013301;fill-rule:evenodd;stroke:#1b1918;stroke-width:0.23369035;stroke-linecap:butt;stroke-linejoin:miter;stroke-dasharray:none;opacity:0.524"
       id="shadow"
       inkscape:connector-curvature="0" />
    <path
       d="m 79.927465,94.248205 v 82.153035 q 0,23.07668 22.965325,23.07668 h 90.71547 q 22.96532,0 22.96532,-23.07668 V 94.248205 q 0,-23.076672 -22.96532,-23.076672 h -90.71547 q -22.965325,0 -22.965325,23.076672 z"
       class="green"
       id="path6745"
       inkscape:connector-curvature="0"
       style="fill:#006600;fill-rule:evenodd;stroke:#1b1918;stroke-width:6.62430382;stroke-linecap:butt;stroke-linejoin:miter;stroke-dasharray:none;opacity:0.469" />
    <path
       id="path6747"
       d="M 149.3984,96.496435 A 37.018317,38.828241 0 1 0 186.41681,135.32455 37.018317,38.828241 0 0 0 149.3984,96.496435 Z m 0,13.867375 a 23.797492,24.961002 0 0 1 23.79752,24.96074 23.797492,24.961002 0 1 1 -23.79752,-24.96074 z"
       class="green"
       inkscape:connector-curvature="0"
       style="fill:#006600;fill-rule:evenodd;stroke:#1b1918;stroke-width:6.62430382;stroke-linecap:butt;stroke-linejoin:miter;stroke-dasharray:none" />
    <g
       class="green"
       inkscape:label="#Cannon"
       id="cannon"
       style="fill:#006600;fill-rule:evenodd;stroke:#1b1918;stroke-width:6.62430382;stroke-linecap:butt;stroke-linejoin:miter;stroke-dasharray:none">
      <path
         inkscape:connector-curvature="0"
         id="path6751"
         d="m 20.926377,133.32935 v 5.76917 q 0,8.07685 8.037854,8.07685 h 54.977382 q 8.037878,0 8.037878,-8.07685 v -5.76917 q 0,-8.07682 -8.037878,-8.07682 H 28.964231 q -8.037854,0 -8.037854,8.07682 z" />
      <path
         inkscape:connector-curvature="0"
         id="path6753"
         d="m 6.5364707,131.81118 v 8.80555 q 0,12.3278 12.2682973,12.3278 h 15.054081 q 12.268298,0 12.268298,-12.3278 v -8.80555 q 0,-12.3278 -12.268298,-12.3278 H 18.804768 q -12.2682973,0 -12.2682973,12.3278 z" />
    </g>
  </g>
</svg>
