<?xml version="1.0" encoding="UTF-8" standalone="no"?>
<svg
   xmlns:dc="http://purl.org/dc/elements/1.1/"
   xmlns:cc="http://creativecommons.org/ns#"
   xmlns:rdf="http://www.w3.org/1999/02/22-rdf-syntax-ns#"
   xmlns:svg="http://www.w3.org/2000/svg"
   xmlns="http://www.w3.org/2000/svg"
   id="svg13344"
   version="1.1"
   viewBox="0 0 210 210"
   height="210mm"
   width="210mm">
  <defs
     id="defs13338" />
  <metadata
     id="metadata13341">
    <rdf:RDF>
      <cc:Work
         rdf:about="">
        <dc:format>image/svg+xml</dc:format>
        <dc:type
           rdf:resource="http://purl.org/dc/dcmitype/StillImage" />
        <dc:title></dc:title>
      </cc:Work>
    </rdf:RDF>
  </metadata>
  <g
     transform="translate(0,-87)"
     id="layer1">
    <path
       id="path7763"
       style="fill:#ffffff;fill-rule:evenodd;stroke:#1b1918;stroke-width:0.24976303;stroke-linecap:butt;stroke-linejoin:miter;stroke-dasharray:none"
       d="M -0.20547399,87.395673 V 297.20551 H 209.60429 V 87.395673 Z" />
    <g
       transform="matrix(-0.44057687,0,0,0.44057677,-19292.302,3103.57)"
       id="Layer1189">
      <path
         id="path7823"
         style="fill:#000000;fill-rule:evenodd;stroke:#1b1918;stroke-width:0.56690001;stroke-linecap:butt;stroke-linejoin:miter;stroke-dasharray:none"
         d="m -43885.648,-6788.8247 c 9.726,54.1243 -8.136,42.7822 -50.54,81.1001 l 18.819,-7.7798 26.762,-11.0632 c -15.673,43.1345 4.907,60.0048 -29.567,90.4455 -57.369,35.8489 -124.416,-11.7988 -98.946,-81.508 56.015,-76.7095 37.829,-61.2882 133.472,-71.1946 z" />
      <path
         id="path7825"
         style="fill:#000000;fill-rule:evenodd;stroke:#1b1918;stroke-width:0.56690001;stroke-linecap:butt;stroke-linejoin:miter;stroke-dasharray:none"
         d="m -44065.31,-6658.0007 103.355,75.4713 c -25.053,23.2816 -157.05,164.005 -185.788,148.1733 -27.072,-14.9147 70.142,-197.0044 82.433,-223.6446 z" />
    </g>
  </g>
</svg>
