<?xml version="1.0" encoding="UTF-8" standalone="no"?>
<svg
   xmlns:dc="http://purl.org/dc/elements/1.1/"
   xmlns:cc="http://creativecommons.org/ns#"
   xmlns:rdf="http://www.w3.org/1999/02/22-rdf-syntax-ns#"
   xmlns:svg="http://www.w3.org/2000/svg"
   xmlns="http://www.w3.org/2000/svg"
   id="svg13344"
   version="1.1"
   viewBox="0 0 210 210"
   height="210mm"
   width="210mm">
  <defs
     id="defs13338" />
  <metadata
     id="metadata13341">
    <rdf:RDF>
      <cc:Work
         rdf:about="">
        <dc:format>image/svg+xml</dc:format>
        <dc:type
           rdf:resource="http://purl.org/dc/dcmitype/StillImage" />
        <dc:title></dc:title>
      </cc:Work>
    </rdf:RDF>
  </metadata>
  <g
     transform="translate(0,-87)"
     id="layer1">
    <path
       id="path7763"
       style="fill:#ffffff;fill-rule:evenodd;stroke:#1b1918;stroke-width:0.24976303;stroke-linecap:butt;stroke-linejoin:miter;stroke-dasharray:none"
       d="M -0.20547399,87.395673 V 297.20551 H 209.60429 V 87.395673 Z" />
    <path
       id="path7794"
       style="fill:#ffffff;fill-rule:evenodd;stroke:#1b1918;stroke-width:0.24976303;stroke-linecap:butt;stroke-linejoin:miter;stroke-dasharray:none"
       d="M -0.20547399,87.395673 V 297.20551 H 209.60429 V 87.395673 Z" />
    <path
       id="path7806"
       style="fill:#000000;fill-rule:evenodd;stroke:#1b1918;stroke-width:24.97758102;stroke-linecap:butt;stroke-linejoin:miter;stroke-dasharray:none"
       d="m 103.06002,163.07992 c 1.85792,-0.17997 3.36777,-0.0504 5.20234,0.16585 2.89723,0.34181 4.72959,0.70943 7.54532,1.74629 9.74291,3.58729 19.09195,14.53708 19.27391,25.83171 0.0912,5.68 0.10398,8.30267 -1.90505,13.20295 -2.1694,5.28987 -5.19881,9.45139 -9.62264,12.93894 -1.34024,1.05637 -2.8382,2.03283 -4.56966,2.8793 -24.306192,11.88337 -47.80348,-9.61404 -43.451901,-31.82987 1.062672,-5.42478 2.549178,-8.67989 5.707233,-12.89334 2.246502,-2.99826 6.39233,-6.64324 10.1575,-8.67465 3.583212,-1.93365 7.118401,-2.92684 11.662948,-3.36724 z m 20.08899,-40.88037 h -1.34905 c -2.93116,1.53194 -1.98832,0.17253 -5.47637,5.66023 -5.31732,8.36558 -3.82421,8.34029 -13.56624,8.59084 -1.77861,0.046 -3.833903,0.10907 -5.591805,-0.0613 -2.187023,-0.21211 -2.449607,-0.73524 -3.384951,-1.96031 l -4.748979,-6.41216 c -2.144288,-2.88014 -2.92543,-4.83215 -6.326244,-4.26702 -3.476152,0.57749 -12.694343,5.04424 -15.165539,6.73447 -4.325583,2.95839 1.893601,13.07874 0.904505,17.89003 -0.487719,2.37376 -3.660753,4.65274 -5.017731,6.13634 -1.034473,1.13193 -4.021584,4.69946 -5.698861,5.20498 -4.159046,1.25256 -15.186245,-4.69013 -17.994482,0.40991 -1.030069,1.87042 -5.73455,14.40356 -5.45214,16.5059 0.477585,3.5499 9.527476,7.03584 12.41766,9.76512 2.107279,1.99022 1.73411,6.43634 1.796233,9.30274 0.190769,8.77082 -0.121158,7.93204 -8.452028,13.58897 -2.687079,1.82456 -5.036234,3.46805 -4.229979,6.61821 0.736645,2.87657 5.272384,13.20273 6.794578,15.05583 3.343097,4.07058 13.387369,-2.19764 17.679029,-1.11544 1.357858,0.34232 5.297938,3.73233 6.189664,4.70244 1.924881,2.0949 4.547635,3.94201 4.924769,5.99242 0.463928,2.51883 -0.672761,7.08994 -1.124794,9.6989 -0.777177,4.48622 -1.393544,5.78386 1.845578,7.97163 2.296727,1.55117 14.074669,5.98959 15.957694,5.80719 3.677056,-0.35607 7.060245,-9.3849 9.803719,-12.24222 2.024891,-2.1089 5.974664,-1.80478 9.082494,-1.97977 3.74358,-0.21073 7.19506,-0.519 9.08381,1.69709 1.51603,1.77949 3.1629,4.17769 4.70757,6.46354 1.40279,2.07622 3.2096,4.99481 6.22006,4.7695 2.44697,-0.18297 12.93093,-5.25001 15.23559,-6.63468 5.10497,-3.06695 -1.39178,-12.28233 -0.5027,-17.4788 0.46349,-2.7128 5.57991,-7.35838 7.45545,-9.31427 3.55853,-3.71094 5.08513,-2.89657 12.63574,-1.43496 3.93435,0.76158 6.21478,1.62181 8.27007,-1.37204 1.29044,-1.88008 5.96718,-13.20188 5.97026,-15.90257 0,-2.87381 -3.39377,-4.68655 -5.36359,-5.81492 -1.92267,-1.10113 -5.29793,-2.80758 -6.72672,-4.19966 -1.13581,-1.10669 -1.5526,-1.69846 -1.83236,-3.7335 -0.23483,-1.70749 -0.24232,-3.54334 -0.31898,-5.32392 -0.39564,-9.21124 0.72915,-8.52715 6.57649,-12.77326 2.40643,-1.74706 6.58839,-3.97191 6.50731,-7.22405 -0.0454,-1.81522 -5.68078,-14.01095 -6.59719,-15.29427 -3.67749,-5.15196 -10.2346,0.73794 -17.39045,0.45526 -2.5527,-0.10091 -3.88545,-2.2125 -5.05694,-3.35847 -1.21908,-1.19238 -6.12182,-5.4621 -6.80824,-6.68307 -2.54212,-4.52111 3.61009,-13.95134 -0.0731,-18.30875 -0.89481,-1.05913 -5.79535,-2.70043 -7.59158,-3.34222 -1.72574,-0.61653 -7.10695,-2.15345 -8.2172,-2.78999 z" />
  </g>
</svg>
