<?xml version="1.0" encoding="UTF-8" standalone="no"?>
<svg
   xmlns:dc="http://purl.org/dc/elements/1.1/"
   xmlns:cc="http://creativecommons.org/ns#"
   xmlns:rdf="http://www.w3.org/1999/02/22-rdf-syntax-ns#"
   xmlns:svg="http://www.w3.org/2000/svg"
   xmlns="http://www.w3.org/2000/svg"
   viewBox="0 0 1190.5511 841.88977"
   id="svg1856"
   height="841.88977"
   width="1190.5511"
   version="1.1">
  <metadata
     id="metadata1862">
    <rdf:RDF>
      <cc:Work
         rdf:about="">
        <dc:format>image/svg+xml</dc:format>
        <dc:type
           rdf:resource="http://purl.org/dc/dcmitype/StillImage" />
        <dc:title></dc:title>
      </cc:Work>
    </rdf:RDF>
  </metadata>
  <defs
     id="defs1860" />
  <g
     id="Layer1002">
    <path
       id="path144"
       style="fill:#cb3200;fill-rule:evenodd"
       d="m 12395.724,-12067.478 v 283.465 h 297.421 v -283.465 z" />
    <path
       id="path146"
       style="fill:#cb3200;fill-rule:evenodd"
       d="m 13261.047,-12067.478 v 283.465 h 297.444 v -283.465 z" />
    <path
       id="path148"
       style="fill:#cb3200;fill-rule:evenodd"
       d="m 12395.726,-12647.941 v 297.528 h 297.419 v -297.528 z" />
    <path
       id="path150"
       style="fill:#cb3200;fill-rule:evenodd"
       d="m 13261.331,-12647.907 v 296.927 h 297 v -296.927 z" />
    <path
       id="path152"
       style="fill:#cb3200;fill-rule:evenodd;stroke:#1b1918;stroke-width:28.3465004;stroke-linecap:butt;stroke-linejoin:miter;stroke-dasharray:none"
       d="m 12409.765,-11783.711 v 283.464 h 566.929 v -283.464 z" />
    <path
       id="path154"
       style="fill:#cb3200;fill-rule:evenodd;stroke:#1b1918;stroke-width:28.3465004;stroke-linecap:butt;stroke-linejoin:miter;stroke-dasharray:none"
       d="m 12977.299,-11783.711 v 283.464 h 566.929 v -283.464 z" />
    <path
       id="path156"
       style="fill:#cb3200;fill-rule:evenodd;stroke:#1b1918;stroke-width:28.3465004;stroke-linecap:butt;stroke-linejoin:miter;stroke-dasharray:none"
       d="m 12693.466,-12067.544 v 283.464 h 566.929 v -283.464 z" />
    <path
       id="path158"
       style="fill:#cb3200;fill-rule:evenodd;stroke:#1b1918;stroke-width:28.3465004;stroke-linecap:butt;stroke-linejoin:miter;stroke-dasharray:none"
       d="m 12409.765,-12350.112 v 283.465 h 566.929 v -283.465 z" />
    <path
       id="path160"
       style="fill:#cb3200;fill-rule:evenodd;stroke:#1b1918;stroke-width:28.3465004;stroke-linecap:butt;stroke-linejoin:miter;stroke-dasharray:none"
       d="m 12977.299,-12350.112 v 283.465 h 566.929 v -283.465 z" />
    <path
       id="path162"
       style="fill:#cb3200;fill-rule:evenodd;stroke:#1b1918;stroke-width:28.3465004;stroke-linecap:butt;stroke-linejoin:miter;stroke-dasharray:none"
       d="m 12693.466,-12633.945 v 283.465 h 566.929 v -283.465 z" />
  </g>
  <g
     id="Layer1004">
    <path
       id="path186"
       style="fill:#cc9a00;fill-rule:evenodd"
       d="m 12381.06,-13709.078 v 283.465 h 297.42 v -283.465 z" />
    <path
       id="path188"
       style="fill:#cc9a00;fill-rule:evenodd"
       d="m 13246.382,-13709.078 v 283.465 h 297.444 v -283.465 z" />
    <path
       id="path190"
       style="fill:#cc9a00;fill-rule:evenodd"
       d="m 12381.061,-14289.541 v 297.527 h 297.419 v -297.527 z" />
    <path
       id="path192"
       style="fill:#cc9a00;fill-rule:evenodd"
       d="m 13246.666,-14289.508 v 296.927 h 297.001 v -296.927 z" />
    <path
       id="path194"
       style="fill:#cc9a00;fill-rule:evenodd;stroke:#1b1918;stroke-width:28.3465004;stroke-linecap:butt;stroke-linejoin:miter;stroke-dasharray:none"
       d="m 12395.1,-13425.312 v 283.465 h 566.929 v -283.465 z" />
    <path
       id="path196"
       style="fill:#cc9a00;fill-rule:evenodd;stroke:#1b1918;stroke-width:28.3465004;stroke-linecap:butt;stroke-linejoin:miter;stroke-dasharray:none"
       d="m 12962.634,-13425.312 v 283.465 h 566.929 v -283.465 z" />
    <path
       id="path198"
       style="fill:#cc9a00;fill-rule:evenodd;stroke:#1b1918;stroke-width:28.3465004;stroke-linecap:butt;stroke-linejoin:miter;stroke-dasharray:none"
       d="m 12678.801,-13709.145 v 283.465 h 566.929 v -283.465 z" />
    <path
       id="path200"
       style="fill:#cc9a00;fill-rule:evenodd;stroke:#1b1918;stroke-width:28.3465004;stroke-linecap:butt;stroke-linejoin:miter;stroke-dasharray:none"
       d="m 12395.1,-13991.712 v 283.465 h 566.929 v -283.465 z" />
    <path
       id="path202"
       style="fill:#cc9a00;fill-rule:evenodd;stroke:#1b1918;stroke-width:28.3465004;stroke-linecap:butt;stroke-linejoin:miter;stroke-dasharray:none"
       d="m 12962.634,-13991.712 v 283.465 h 566.929 v -283.465 z" />
    <path
       id="path204"
       style="fill:#cc9a00;fill-rule:evenodd;stroke:#1b1918;stroke-width:28.3465004;stroke-linecap:butt;stroke-linejoin:miter;stroke-dasharray:none"
       d="m 12678.801,-14275.545 v 283.465 h 566.929 v -283.465 z" />
  </g>
  <path
     id="path1051"
     style="fill:#8ec953;fill-rule:evenodd"
     d="m 16249.497,-11564.652 h 1133.811 l 0.05,-1133.858 h -1133.812 z" />
  <g
     id="Layer1050">
    <path
       id="path1072"
       style="fill:#8ec953;fill-rule:evenodd"
       d="m 14276.215,-13171.224 h 1133.811 l 0.05,-1133.66 h -1133.811 z" />
    <path
       id="path1074"
       style="fill:#a2a2a2;fill-rule:evenodd"
       d="m 15150.73,-13171.369 v -1133.687 h 259.343 v 1133.687 z" />
    <path
       id="path1076"
       style="fill:#717271;fill-rule:evenodd"
       d="m 15347.735,-13171.197 62.338,-0.172 v -1133.687 l -62.244,71.413 z" />
    <path
       id="path1078"
       style="fill:#717271;fill-rule:evenodd"
       d="m 15214.365,-13171.197 h -69.897 v -1133.687 l 69.71,70.79 z" />
    <path
       id="path1080"
       style="fill:#d2d1d2;fill-rule:evenodd"
       d="m 15410.073,-14305.056 -61.838,70.951 h -134.088 l -69.679,-70.779 z" />
  </g>
  <g
     id="Layer1051">
    <path
       id="path1083"
       style="fill:#8ec953;fill-rule:evenodd"
       d="m 15410.99,-11500.824 h -1133.811 l -0.05,-1133.66 h 1133.811 z" />
    <path
       id="path1085"
       style="fill:#a2a2a2;fill-rule:evenodd"
       d="m 14536.475,-11500.969 v -1133.687 h -259.343 v 1133.687 z" />
    <path
       id="path1087"
       style="fill:#717271;fill-rule:evenodd"
       d="m 14339.47,-11500.797 -62.338,-0.172 v -1133.687 l 62.244,71.413 z" />
    <path
       id="path1089"
       style="fill:#717271;fill-rule:evenodd"
       d="m 14472.84,-11500.797 h 69.897 v -1133.687 l -69.709,70.79 z" />
    <path
       id="path1091"
       style="fill:#d2d1d2;fill-rule:evenodd"
       d="m 14277.132,-12634.656 61.838,70.951 h 134.089 l 69.678,-70.779 z" />
  </g>
  <g
     id="Layer1052">
    <path
       id="path1094"
       style="fill:#8ec953;fill-rule:evenodd"
       d="m 14230.711,-10798.467 h 1133.811 l 0.05,1133.4873 h -1133.811 z" />
    <path
       id="path1096"
       style="fill:#a2a2a2;fill-rule:evenodd"
       d="m 15105.226,-10798.322 v 1133.5144 h 259.343 v -1133.5144 z" />
    <path
       id="path1098"
       style="fill:#717271;fill-rule:evenodd"
       d="m 15302.231,-10798.494 62.338,0.172 v 1133.5144 l -62.244,-0.1724 z" />
    <path
       id="path1100"
       style="fill:#717271;fill-rule:evenodd"
       d="m 15168.861,-10798.494 h -69.897 v 1133.5143 h 70.91 z" />
  </g>
  <g
     id="Layer1053">
    <path
       id="path1103"
       style="fill:#8ec953;fill-rule:evenodd"
       d="M 15421.791,-9284.419 H 14287.98 l -0.05,1133.6596 h 1133.811 z" />
    <path
       id="path1105"
       style="fill:#a2a2a2;fill-rule:evenodd"
       d="m 14547.276,-9284.2735 v 1133.6863 h -259.343 v -1133.6863 z" />
    <path
       id="path1107"
       style="fill:#717271;fill-rule:evenodd"
       d="m 14350.271,-9284.4456 -62.338,0.1719 v 1133.6865 l 62.244,-0.1725 z" />
    <path
       id="path1109"
       style="fill:#717271;fill-rule:evenodd"
       d="m 14483.641,-9284.4456 h 69.896 v 1133.6862 h -70.909 z" />
  </g>
  <g
     id="Layer1062">
    <path
       id="path1228"
       style="fill:#525252;fill-rule:evenodd"
       d="m 15507.669,-7785.7121 v 1133.8583 H 14373.81 v -1133.8583 z" />
    <path
       id="path1230"
       style="fill:#d2d1d2;fill-rule:evenodd"
       d="m 15310.076,-6651.8538 v -1133.8583 h 197.593 v 1133.8583 z" />
    <path
       id="path1232"
       style="fill:#525252;fill-rule:evenodd"
       d="m 15259.041,-7389.7739 h 248.628 v 396.851 h -248.628 z" />
  </g>
  <g
     id="Layer1063">
    <path
       id="path1235"
       style="fill:#525252;fill-rule:evenodd"
       d="m 14370.106,-6215.8521 v 1133.8582 h 1133.859 v -1133.8582 z" />
    <path
       id="path1237"
       style="fill:#d2d1d2;fill-rule:evenodd"
       d="m 14567.699,-5081.9939 v -1133.8582 h -197.593 v 1133.8582 z" />
    <path
       id="path1239"
       style="fill:#525252;fill-rule:evenodd"
       d="m 14618.734,-5819.9139 h -248.628 v 396.8509 h 248.628 z" />
  </g>
  <path
     id="path1380"
     style="fill:#525252;fill-rule:evenodd"
     d="m 14370.106,-4507.052 v 1133.8582 h 1133.859 V -4507.052 Z" />
  <path
     id="path1390"
     style="fill:#915b26;fill-rule:evenodd"
     d="m 16232.506,-14279.852 v 1133.858 h 1133.858 v -1133.858 z" />
  <path
     id="path1392"
     style="fill:#f5d36e;fill-rule:evenodd"
     d="m 16249.497,-9769.4517 h 1133.811 l 0.05,-1133.8583 h -1133.812 z" />
  <path
     id="path1394"
     style="fill:#4eb7d4;fill-rule:evenodd"
     d="m 16302.298,-8175.8493 h 1133.811 l 0.05,-1133.8583 h -1133.811 z" />
  <path
     id="path1398"
     style="fill:#525252;fill-rule:evenodd"
     d="m 17699.046,-4754.7587 a 1133.8583,1133.8583 0 0 1 -1133.858,-1133.859 h 1133.858 z" />
  <g
     transform="translate(11041.527,5767.6293)"
     id="Layer1076">
    <path
       id="path1400"
       style="fill:#525252;fill-rule:evenodd"
       d="m 6657.4324,-12789.693 v 1133.858 H 5523.5741 v -1133.858 z" />
    <path
       id="path1402"
       style="fill:#d2d1d2;fill-rule:evenodd"
       d="m 6459.8398,-11655.835 v -1133.858 h 197.5926 v 1133.858 z" />
    <path
       id="path1404"
       style="fill:#525252;fill-rule:evenodd"
       d="m 6408.8052,-12393.755 h 248.6272 v 396.851 h -248.6272 z" />
  </g>
  <g
     transform="translate(11041.527,5767.6293)"
     id="Layer1077">
    <path
       id="path1407"
       style="fill:#525252;fill-rule:evenodd"
       d="M 7787.4647,-11656.301 H 6653.6065 v 1133.858 h 1133.8582 z" />
    <path
       id="path1409"
       style="fill:#d2d1d2;fill-rule:evenodd"
       d="m 6653.6065,-11458.709 h 1133.8582 v -197.592 H 6653.6065 Z" />
    <path
       id="path1411"
       style="fill:#525252;fill-rule:evenodd"
       d="m 7391.5265,-11407.674 v -248.627 h -396.8509 v 248.627 z" />
  </g>
  <path
     id="path1414"
     style="fill:#d2d1d2;fill-rule:evenodd"
     d="m 17699.046,-5690.8977 a 197.7199,197.7199 0 0 1 -197.72,-197.72 h 197.72 z" />
  <g
     transform="translate(8485.2814,2262.7417)"
     id="Layer1078">
    <path
       id="path1420"
       style="fill:#525252;fill-rule:evenodd"
       d="m 9679.8189,-12933.368 a 1133.8583,1133.8583 0 0 1 1133.8581,1133.859 H 9679.8189 Z" />
    <path
       id="path1422"
       style="fill:#d2d1d2;fill-rule:evenodd"
       d="m 9679.8189,-11997.229 a 197.7199,197.7199 0 0 1 197.7199,197.72 h -197.7199 z" />
  </g>
  <g
     transform="translate(11041.527,5767.6293)"
     id="Layer1079">
    <path
       id="path1439"
       style="fill:#525252;fill-rule:evenodd"
       d="m 6653.2604,-12790.964 v 1133.858 h 1133.8582 v -1133.858 z" />
    <path
       id="path1441"
       style="fill:#d2d1d2;fill-rule:evenodd"
       d="m 6850.8529,-11657.106 v -1133.858 h -197.5925 v 1133.858 z" />
    <path
       id="path1443"
       style="fill:#525252;fill-rule:evenodd"
       d="m 6901.8875,-12395.026 h -248.6271 v 396.851 h 248.6271 z" />
    <path
       id="path1445"
       style="fill:#d2d1d2;fill-rule:evenodd"
       d="m 6653.287,-11653.881 h 1133.8583 v -197.592 H 6653.287 Z" />
    <path
       id="path1447"
       style="fill:#525252;fill-rule:evenodd"
       d="m 7392.0246,-11653.389 v -269.176 h -396.851 v 269.176 z" />
    <path
       id="path1449"
       style="fill:#d2d1d2;fill-rule:evenodd"
       d="m 6991.1507,-11850.796 h -141.1144 l 0.056,-147.379 c 0.062,83.733 63.1594,147.379 141.0566,147.379 z" />
  </g>
  <path
     id="path1485"
     style="fill:#8ec953;fill-rule:evenodd"
     d="m 18130.353,-7790.3104 h 1133.811 l 0.05,-1133.858 H 18130.4 Z" />
  <path
     id="path1487"
     style="fill:#525252;fill-rule:evenodd"
     d="m 19264.174,-7790.3327 a 1133.8583,1133.8583 0 0 1 -1133.859,-1133.8587 h 1133.859 z" />
  <path
     id="path1489"
     style="fill:#d2d1d2;fill-rule:evenodd"
     d="m 19264.289,-8726.4524 a 197.7199,197.7199 0 0 1 -197.72,-197.72 h 197.72 z" />
  <g
     id="Layer1083">
    <g
       id="Layer1084">
      <path
         id="path1491"
         style="fill:#8ec953;fill-rule:evenodd"
         d="m 15384.844,-15803.886 h -1133.811 l -0.05,1133.659 h 1133.811 z" />
      <path
         id="path1493"
         style="fill:#a2a2a2;fill-rule:evenodd"
         d="m 14510.329,-15803.741 v 1133.686 h -259.343 v -1133.686 z" />
      <path
         id="path1495"
         style="fill:#717271;fill-rule:evenodd"
         d="m 14313.324,-15803.913 -62.338,0.172 v 1133.686 l 62.244,-71.412 z" />
      <path
         id="path1497"
         style="fill:#717271;fill-rule:evenodd"
         d="m 14446.694,-15803.913 h 69.896 v 1133.686 l -69.709,-70.789 z" />
      <path
         id="path1499"
         style="fill:#d2d1d2;fill-rule:evenodd"
         d="m 14250.986,-14670.055 61.837,-70.95 h 134.089 l 69.678,70.778 z" />
    </g>
    <path
       id="path1502"
       style="fill:#d2d1d2;fill-rule:evenodd"
       d="m 14251.184,-15804.048 61.838,70.951 h 134.088 l 69.679,-70.779 z" />
  </g>
  <g
     id="Layer1085">
    <g
       id="Layer1086">
      <path
         id="path1505"
         style="fill:#8ec953;fill-rule:evenodd"
         d="m 14236.585,-17368.686 h 1133.812 l 0.05,1133.659 h -1133.812 z" />
      <path
         id="path1507"
         style="fill:#a2a2a2;fill-rule:evenodd"
         d="m 15111.1,-17368.541 v 1133.686 h 259.344 v -1133.686 z" />
      <path
         id="path1509"
         style="fill:#717271;fill-rule:evenodd"
         d="m 15308.105,-17368.713 62.339,0.172 v 1133.686 l -62.245,-71.412 z" />
      <path
         id="path1511"
         style="fill:#717271;fill-rule:evenodd"
         d="m 15174.736,-17368.713 h -69.897 v 1133.686 l 69.709,-70.789 z" />
      <path
         id="path1513"
         style="fill:#d2d1d2;fill-rule:evenodd"
         d="m 15370.444,-16234.855 -61.838,-70.95 h -134.089 l -69.678,70.778 z" />
    </g>
    <path
       id="path1516"
       style="fill:#d2d1d2;fill-rule:evenodd"
       d="m 15370.246,-17368.848 -61.838,70.951 h -134.089 l -69.678,-70.779 z" />
  </g>
  <g
     id="Layer1087">
    <g
       id="Layer1088">
      <path
         id="path1519"
         style="fill:#8ec953;fill-rule:evenodd"
         d="m 15360.749,-18914.379 v 1133.811 l -1133.659,0.05 v -1133.811 z" />
      <path
         id="path1521"
         style="fill:#a2a2a2;fill-rule:evenodd"
         d="m 15360.604,-18039.864 h -1133.687 v 259.343 h 1133.687 z" />
      <path
         id="path1523"
         style="fill:#717271;fill-rule:evenodd"
         d="m 15360.776,-17842.859 -0.172,62.338 h -1133.687 l 71.413,-62.244 z" />
      <path
         id="path1525"
         style="fill:#717271;fill-rule:evenodd"
         d="m 15360.776,-17976.229 v -69.897 H 14227.09 l 70.789,69.709 z" />
      <path
         id="path1527"
         style="fill:#d2d1d2;fill-rule:evenodd"
         d="m 14226.918,-17780.521 70.95,-61.838 v -134.089 l -70.778,-69.678 z" />
    </g>
    <path
       id="path1530"
       style="fill:#d2d1d2;fill-rule:evenodd"
       d="m 15360.911,-17780.719 -70.951,-61.838 v -134.089 l 70.779,-69.678 z" />
  </g>
  <g
     id="Layer1089">
    <g
       id="Layer1090">
      <path
         id="path1533"
         style="fill:#8ec953;fill-rule:evenodd"
         d="m 15331.949,-19206.121 v -1133.811 l -1133.659,-0.05 v 1133.811 z" />
      <path
         id="path1535"
         style="fill:#a2a2a2;fill-rule:evenodd"
         d="m 15331.804,-20080.636 h -1133.686 v -259.343 h 1133.686 z" />
      <path
         id="path1537"
         style="fill:#717271;fill-rule:evenodd"
         d="m 15331.976,-20277.641 -0.172,-62.338 h -1133.686 l 71.412,62.244 z" />
      <path
         id="path1539"
         style="fill:#717271;fill-rule:evenodd"
         d="m 15331.976,-20144.271 v 69.896 H 14198.29 l 70.789,-69.709 z" />
      <path
         id="path1541"
         style="fill:#d2d1d2;fill-rule:evenodd"
         d="m 14198.118,-20339.979 70.95,61.837 v 134.089 l -70.778,69.678 z" />
    </g>
    <path
       id="path1544"
       style="fill:#d2d1d2;fill-rule:evenodd"
       d="m 15332.111,-20339.781 -70.951,61.838 v 134.088 l 70.779,69.678 z" />
  </g>
  <g
     id="Layer1091">
    <path
       id="path1547"
       style="fill:#525252;fill-rule:evenodd"
       d="m 15480.844,-2795.9845 h -1133.858 v 1133.8582 h 1133.858 z" />
    <path
       id="path1549"
       style="fill:#d2d1d2;fill-rule:evenodd"
       d="m 14346.986,-2598.3919 h 1133.858 v -197.5926 h -1133.858 z" />
    <path
       id="path1551"
       style="fill:#525252;fill-rule:evenodd"
       d="m 15084.906,-2547.3573 v -248.6272 h -396.851 v 248.6272 z" />
  </g>
  <g
     id="Layer1092">
    <path
       id="path1554"
       style="fill:#525252;fill-rule:evenodd"
       d="m 15500.044,65.8737 h -1133.859 v -1133.8582 h 1133.859 z" />
    <path
       id="path1556"
       style="fill:#d2d1d2;fill-rule:evenodd"
       d="m 14366.185,-131.7188 h 1133.859 V 65.8737 h -1133.859 z" />
    <path
       id="path1558"
       style="fill:#525252;fill-rule:evenodd"
       d="M 15104.106,-182.7534 V 65.8737 h -396.851 v -248.6271 z" />
  </g>
  <path
     id="path1637"
     style="fill:#a2a2a2;fill-rule:evenodd"
     d="m 18429.882,-7790.3106 c -116.409,-81.756 -221.368,-186.5803 -299.517,-304.3029 l 0.03,-806.7039 4.898,84.455 c 46.15,470.068 383.44,867.0163 844.65,985.9058 66.044,17.0207 157.584,27.1265 228.94,38.4945 l 55.278,2.0611 z" />
  <path
     id="path1647"
     style="fill:#717271;fill-rule:evenodd"
     d="m 18131.57,-8453.4474 0.02,-449.501 4.898,84.455 c 46.15,470.068 383.441,867.0162 844.65,985.9058 66.045,17.0206 157.584,27.1264 228.94,38.4945 l 53.541,1.9964 v 0.065 l -507.178,0.055 c -279.694,-137.9596 -502.77,-373.1436 -624.869,-661.4706 z" />
  <g
     id="Layer1098">
    <path
       id="path1658"
       style="fill:#8ec953;fill-rule:evenodd"
       d="m 14197.32,-20960.31 v -1133.812 l 1133.487,-0.05 v 1133.812 z" />
    <path
       id="path1660"
       style="fill:#a2a2a2;fill-rule:evenodd"
       d="m 14197.465,-21834.825 h 1133.514 v -259.344 h -1133.514 z" />
    <path
       id="path1662"
       style="fill:#717271;fill-rule:evenodd"
       d="m 14197.293,-22031.831 0.172,-62.338 h 1133.514 l -0.172,62.245 z" />
    <path
       id="path1664"
       style="fill:#717271;fill-rule:evenodd"
       d="m 14197.293,-21898.461 v 69.897 h 1133.514 v -70.909 z" />
  </g>
  <path
     id="path1694"
     style="fill:none;stroke:#1b1918;stroke-width:0.56690001;stroke-linecap:butt;stroke-linejoin:miter;stroke-dasharray:none"
     d="m 19330.874,-5935.9839 v 1133.8583 h 1133.859 v -1133.8583 z" />
  <path
     id="path1698"
     style="fill:none;stroke:#26000d;stroke-width:0.21600001;stroke-linecap:butt;stroke-linejoin:miter;stroke-dasharray:none"
     d="m 20388.532,-6684.6116 -438.888,9 c 0,651.9004 721.637,1172.9655 1373.088,1172.9655 l -0.424,-265.2275 c -484.608,-97.9165 -862.638,-422.6261 -933.776,-916.738 z" />
  <g
     transform="translate(-70.710678,-2085.965)"
     id="Layer1104">
    <path
       id="path1742"
       style="fill:#8ec953;fill-rule:evenodd"
       d="M 15477.034,4334.6846 V 5468.5429 H 14343.176 V 4334.6846 Z" />
    <path
       id="path1744"
       style="fill:#a2a2a2;fill-rule:evenodd"
       d="m 15178.512,4335.0953 h -826.285 c -0.175,0.036 -8.757,0.872 -8.933,0.9074 l -0.422,263.5135 c 284.323,0 590.408,-98.354 835.64,-264.4209 z" />
    <path
       id="path1746"
       style="fill:#717271;fill-rule:evenodd"
       d="m 15178.48,4334.2092 -113.019,-0.1947 c -212.104,121.5017 -488.334,187.397 -722.485,196.4846 l -0.1,69.5466 c 284.323,0 590.368,-99.7696 835.6,-265.8365 z" />
    <path
       id="path1748"
       style="fill:#717271;fill-rule:evenodd"
       d="m 14773.931,4334.7192 h -316.244 c -0.05,-0.01 -114.04,-0.4196 -114.539,0.096 l -0.249,61.7062 c 69.164,0 183.994,-5.2906 284.51,-21.0926 57.631,-9.0598 107.927,-22.4683 146.522,-40.7092 z" />
  </g>
  <g
     id="Layer1108">
    <path
       id="path1794"
       style="fill:#8ec953;fill-rule:evenodd"
       d="m 15410.53,1641.2121 h -1133.811 l -0.05,-1133.8583 h 1133.811 z" />
    <path
       id="path1796"
       style="fill:#525252;fill-rule:evenodd"
       d="M 14276.709,1641.1899 A 1133.8583,1133.8583 0 0 0 15410.567,507.3316 h -1133.858 z" />
    <path
       id="path1798"
       style="fill:#d2d1d2;fill-rule:evenodd"
       d="m 14276.594,705.0705 a 197.7199,197.7199 0 0 0 197.72,-197.7199 h -197.72 z" />
    <path
       id="path1800"
       style="fill:#a2a2a2;fill-rule:evenodd"
       d="m 15111.001,1641.2119 c 116.408,-81.756 221.367,-186.5803 299.516,-304.3029 l -0.03,-806.7041 -4.897,84.4554 c -46.151,470.0679 -383.441,867.0161 -844.651,985.9057 -66.044,17.0206 -157.583,27.1264 -228.94,38.4944 l -55.278,2.0611 z" />
    <path
       id="path1802"
       style="fill:#717271;fill-rule:evenodd"
       d="m 15409.712,934.1447 -0.418,-405.5709 -4.898,84.4555 c -46.15,470.0678 -383.44,867.016 -844.65,985.9056 -66.045,17.0206 -157.584,27.1264 -228.94,38.4945 l -53.537,3.6717 -0.551,0.1108 429.35,0.1069 c 403.527,-199.0406 528.634,-290.0285 703.644,-707.1741 z" />
    <path
       id="path1804"
       style="fill:#717271;fill-rule:evenodd"
       d="m 15113.628,1640.4437 c 116.409,-81.756 218.74,-185.8121 296.889,-303.5347 l -0,-113.733 c -114.754,179.5289 -229.396,294.4423 -411.934,417.2556 z m -806.939,-1.11 -27.343,1.0196 27.343,0 z" />
  </g>
  <g
     id="Layer1110">
    <path
       id="path1818"
       style="fill:#8ec953;fill-rule:evenodd"
       d="m 14148.054,-23671.742 h 1133.811 l 0.05,1133.487 h -1133.812 z" />
    <path
       id="path1820"
       style="fill:#a2a2a2;fill-rule:evenodd"
       d="m 15034.622,-23671.782 h 247.514 l -0.301,203.497 z" />
    <path
       id="path1822"
       style="fill:#717271;fill-rule:evenodd"
       d="m 15219.938,-23672.508 62.152,0 0.193,62.759 z" />
    <path
       id="path1824"
       style="fill:#717271;fill-rule:evenodd"
       d="m 15281.799,-23476.281 -195.358,-195.734 h -69.851 l 265.521,265.542 z" />
  </g>
  <path
     id="path1836"
     style="fill:none;stroke:#1b1918;stroke-width:0.56690001;stroke-linecap:butt;stroke-linejoin:miter;stroke-dasharray:none"
     d="m 16316.474,-7759.984 v 1133.8583 h 1133.858 V -7759.984 Z" />
</svg>
