<svg xmlns="http://www.w3.org/2000/svg" viewBox="0 0 210 297" height="2100" width="2100"><g transform="matrix(.87235 0 0 .87235 -73.194 30.599)"><rect width="43.089" height="43.089" x="34.018" y="51.315" rx="0" ry="0"/><path fill="#fff" d="M77.107 51.315h43.089v43.089H77.107z"/><rect width="43.089" height="43.089" x="120.196" y="51.315" rx="0" ry="0"/><path fill="#fff" d="M163.286 51.315h43.089v43.089h-43.089z"/><rect width="43.089" height="43.089" x="206.375" y="51.315" rx="0" ry="0"/><path fill="#fff" d="M249.464 51.315h43.089v43.089h-43.089z"/><rect width="43.089" height="43.089" x="292.554" y="51.315" rx="0" ry="0"/><path fill="#fff" d="M335.643 51.315h43.089v43.089h-43.089z"/><g transform="translate(346.982 302.58)"><rect ry="0" rx="0" y="-208.176" x="-11.339" height="43.089" width="43.089"/><path fill="#fff" d="M-54.429-208.176h43.089v43.089h-43.089z"/><rect ry="0" rx="0" y="-208.176" x="-97.518" height="43.089" width="43.089"/><path fill="#fff" d="M-140.607-208.176h43.089v43.089h-43.089z"/><rect ry="0" rx="0" y="-208.176" x="-183.696" height="43.089" width="43.089"/><path fill="#fff" d="M-226.786-208.176h43.089v43.089h-43.089z"/><rect ry="0" rx="0" y="-208.176" x="-269.875" height="43.089" width="43.089"/><path fill="#fff" d="M-312.964-208.176h43.089v43.089h-43.089z"/></g><rect width="43.089" height="43.089" x="34.018" y="137.494" rx="0" ry="0"/><path fill="#fff" d="M77.107 137.494h43.089v43.089H77.107z"/><rect width="43.089" height="43.089" x="120.196" y="137.494" rx="0" ry="0"/><path fill="#fff" d="M163.286 137.494h43.089v43.089h-43.089z"/><rect width="43.089" height="43.089" x="206.375" y="137.494" rx="0" ry="0"/><path fill="#fff" d="M249.464 137.494h43.089v43.089h-43.089z"/><rect width="43.089" height="43.089" x="292.554" y="137.494" rx="0" ry="0"/><path fill="#fff" d="M335.643 137.494h43.089v43.089h-43.089z"/><g transform="translate(346.982 388.759)"><rect ry="0" rx="0" y="-208.176" x="-11.339" height="43.089" width="43.089"/><path fill="#fff" d="M-54.429-208.176h43.089v43.089h-43.089z"/><rect ry="0" rx="0" y="-208.176" x="-97.518" height="43.089" width="43.089"/><path fill="#fff" d="M-140.607-208.176h43.089v43.089h-43.089z"/><rect ry="0" rx="0" y="-208.176" x="-183.696" height="43.089" width="43.089"/><path fill="#fff" d="M-226.786-208.176h43.089v43.089h-43.089z"/><rect ry="0" rx="0" y="-208.176" x="-269.875" height="43.089" width="43.089"/><path fill="#fff" d="M-312.964-208.176h43.089v43.089h-43.089z"/></g><rect width="43.089" height="43.089" x="34.018" y="223.673" rx="0" ry="0"/><path fill="#fff" d="M77.107 223.673h43.089v43.089H77.107z"/><rect width="43.089" height="43.089" x="120.196" y="223.673" rx="0" ry="0"/><path fill="#fff" d="M163.286 223.673h43.089v43.089h-43.089z"/><rect width="43.089" height="43.089" x="206.375" y="223.673" rx="0" ry="0"/><path fill="#fff" d="M249.464 223.673h43.089v43.089h-43.089z"/><rect width="43.089" height="43.089" x="292.554" y="223.673" rx="0" ry="0"/><path fill="#fff" d="M335.643 223.673h43.089v43.089h-43.089z"/><g transform="translate(346.982 474.938)"><rect ry="0" rx="0" y="-208.176" x="-11.339" height="43.089" width="43.089"/><path fill="#fff" d="M-54.429-208.176h43.089v43.089h-43.089z"/><rect ry="0" rx="0" y="-208.176" x="-97.518" height="43.089" width="43.089"/><path fill="#fff" d="M-140.607-208.176h43.089v43.089h-43.089z"/><rect ry="0" rx="0" y="-208.176" x="-183.696" height="43.089" width="43.089"/><path fill="#fff" d="M-226.786-208.176h43.089v43.089h-43.089z"/><rect ry="0" rx="0" y="-208.176" x="-269.875" height="43.089" width="43.089"/><path fill="#fff" d="M-312.964-208.176h43.089v43.089h-43.089z"/></g><rect width="43.089" height="43.089" x="34.018" y="-34.863" rx="0" ry="0"/><path fill="#fff" d="M77.107-34.863h43.089V8.226H77.107z"/><rect width="43.089" height="43.089" x="120.196" y="-34.863" rx="0" ry="0"/><path fill="#fff" d="M163.286-34.863h43.089V8.226h-43.089z"/><rect width="43.089" height="43.089" x="206.375" y="-34.863" rx="0" ry="0"/><path fill="#fff" d="M249.464-34.863h43.089V8.226h-43.089z"/><rect width="43.089" height="43.089" x="292.554" y="-34.863" rx="0" ry="0"/><path fill="#fff" d="M335.643-34.863h43.089V8.226h-43.089z"/><g transform="translate(346.982 216.402)"><rect ry="0" rx="0" y="-208.176" x="-11.339" height="43.089" width="43.089"/><path fill="#fff" d="M-54.429-208.176h43.089v43.089h-43.089z"/><rect ry="0" rx="0" y="-208.176" x="-97.518" height="43.089" width="43.089"/><path fill="#fff" d="M-140.607-208.176h43.089v43.089h-43.089z"/><rect ry="0" rx="0" y="-208.176" x="-183.696" height="43.089" width="43.089"/><path fill="#fff" d="M-226.786-208.176h43.089v43.089h-43.089z"/><rect ry="0" rx="0" y="-208.176" x="-269.875" height="43.089" width="43.089"/><path fill="#fff" d="M-312.964-208.176h43.089v43.089h-43.089z"/></g></g></svg>